<svg width="151" height="26" viewBox="0 0 151 26" fill="none" xmlns="http://www.w3.org/2000/svg">
<path d="M8.31934 19.6319C11.5028 17.3857 13.5294 14.346 14.5147 10.6448C15.29 7.73198 15.9122 4.77289 14.7873 1.79051C14.5656 1.20269 14.2255 0.660085 13.8959 0.0104253C15.4274 -0.0716701 16.8432 0.339538 18.1803 0.945957C23.0768 3.16723 25.5318 7.14269 25.8401 12.4001C25.9939 15.0228 25.1875 17.5354 23.6474 19.7134C22.1533 21.8263 20.0552 22.9461 17.4787 23.0294C14.2239 23.1345 11.2451 22.3202 8.75077 20.1004C8.61167 19.9766 8.49651 19.8258 8.31934 19.6319Z" fill="#F0F4F8"/>
<path d="M7.74359 19.2359C7.15163 18.7113 6.66069 18.1271 6.04064 17.7671C5.37836 17.3825 4.58353 16.9685 3.86632 17.0007C2.78436 17.0493 2.43136 18.0197 2.30777 19.2531C0.828709 16.6223 0.0913107 14.0539 0.732269 11.2824C1.03026 9.94567 1.53988 8.66561 2.24171 7.49095C4.04755 4.55996 7.10003 3.82027 10.1211 5.40337C12.8271 6.82134 13.8748 9.94755 12.6655 12.996C11.8246 15.116 9.73648 17.7815 7.74359 19.2359Z" fill="#F0F4F8"/>
<path d="M13.785 8.98507C12.4482 4.74807 10.1981 2.82698 4.3623 3.38368C6.11695 1.86168 7.88263 0.50366 10.0356 0.415403C11.8354 0.341559 13.1033 1.73582 13.7923 3.39663C14.5423 5.20471 14.3645 7.06189 13.785 8.98507Z" fill="#F0F4F8"/>
<path d="M17.2195 24.5847C12.9242 26.4237 6.88622 24.8537 3.92383 21.3025C5.31259 21.4382 6.5945 21.3868 7.58585 20.2432C10.3353 22.6115 13.3117 24.416 17.2195 24.5847Z" fill="#F0F4F8"/>
<path d="M7.17731 19.7005C5.60295 20.7734 4.00883 20.5217 3.48314 19.1945C3.33614 18.8233 3.36069 18.2094 3.58291 17.9229C3.74707 17.7112 4.46211 17.6836 4.75319 17.8642C5.59369 18.3853 6.34389 19.0532 7.17731 19.7005Z" fill="#F0F4F8"/>
<path d="M52.1353 19.005V16.778H46.9516V6.35449H44.4814V19.005H52.1353ZM64.7149 19.005V16.778H59.2318V13.8025H63.6856V11.5756H59.2318V8.56271H64.5652V6.35449H56.7616V19.005H64.7149ZM78.012 19.005H80.6319L76.2716 6.35449H72.8283L68.468 19.005H71.0879L72.1359 15.7862H76.964L78.012 19.005ZM74.4564 8.61886H74.6435L76.1968 13.447H72.8845L74.4564 8.61886ZM93.788 9.16155C93.788 7.60831 92.6464 6.35449 91.0932 6.35449H85.1048V19.005H87.575V13.9897H91.0932C92.6464 13.9897 93.788 12.7172 93.788 11.1639V9.16155ZM91.3178 10.3031C91.3178 11.1826 91.0932 11.7628 89.9142 11.7628H87.575V8.56271H89.9142C91.0932 8.56271 91.3178 9.01184 91.3178 9.89139V10.3031ZM102.859 11.4821H102.672L100.221 6.35449H97.4326L101.531 14.1581V19.005H104.001V14.1581L108.099 6.35449H105.311L102.859 11.4821ZM120.524 19.005V16.778H115.041V13.8025H119.495V11.5756H115.041V8.56271H120.374V6.35449H112.571V19.005H120.524ZM133.821 19.005H136.441L132.081 6.35449H128.637L124.277 19.005H126.897L127.945 15.7862H132.773L133.821 19.005ZM130.266 8.61886H130.453L132.006 13.447H128.694L130.266 8.61886ZM149.597 9.16155C149.597 7.60831 148.456 6.35449 146.902 6.35449H140.914V19.005H143.384V13.9897H145.405L147.969 19.005H150.664L147.988 13.7651C148.961 13.3347 149.597 12.3242 149.597 11.1639V9.16155ZM147.127 10.3031C147.127 11.1826 146.902 11.7628 145.723 11.7628H143.384V8.56271H145.723C146.902 8.56271 147.127 9.01184 147.127 9.89139V10.3031Z" fill="#F0F4F8"/>
</svg>
